<svg width="60" height="60" viewBox="0 0 60 60" fill="none" xmlns="http://www.w3.org/2000/svg">
<g clip-path="url(#clip0)">
<rect width="60" height="60" fill="white"/>
<path d="M17 41.0001V27.5001M17 24.0001V27.5001M17 27.5001C18.1667 25.6668 22.5 23.5001 24.5 28.0001M24.5 28.0001V41.0001M24.5 28.0001C25.8077 26.2021 29.0712 23.6986 31.8378 27.7538C31.9449 27.9109 32 28.1011 32 28.2913V41.0001M38.5 22.0001C36.524 18.0483 45.7733 13.6083 44.5494 21.6993C44.5206 21.8896 44.4303 22.0752 44.2993 22.2163L39.5604 27.3197C38.9663 27.9596 39.42 29.0002 40.2932 29.0002H46M20 6H53C53.5523 6 54 6.44772 54 7V40" stroke="black" stroke-width="2" stroke-linejoin="round"/>
<path d="M8.04761 3V45.8972C8.21586 47.7477 9.66285 51.5495 14.1048 51.9533C18.5467 52.357 45.8857 52.1215 58 51.9533M3 7L7.33713 2.70378C7.72951 2.3151 8.36269 2.31811 8.75136 2.71051L13 7M54 47L58.2896 51.2495C58.6819 51.6382 58.6849 52.2713 58.2962 52.6637L54 57" stroke="black" stroke-width="2" stroke-linejoin="round"/>
</g>
<defs>
<clipPath id="clip0">
<rect width="60" height="60" fill="white"/>
</clipPath>
</defs>
</svg>
