<?xml version="1.0" encoding="UTF-8"?>
<!-- Generator: Adobe Illustrator 22.1.0, SVG Export Plug-In . SVG Version: 6.00 Build 0)  -->
<svg version="1.1" id="Слой_1" xmlns="http://www.w3.org/2000/svg" xmlns:xlink="http://www.w3.org/1999/xlink" x="0px" y="0px" viewBox="0 0 30 26" style="enable-background:new 0 0 30 26;" xml:space="preserve">
<style type="text/css">
	.st0{display:none;}
	.st1{display:inline;fill:#333333;}
	.st2{fill:#31B0F8;}
	.st3{fill:#FFFFFF;stroke:#31B0F8;stroke-width:2;stroke-miterlimit:10;}
</style>
<g id="Слой_1_1_" class="st0">
	<path class="st1" d="M28.4,12.7c0.3,0.7,0.6,1.4,0.6,2.2c0,1.4-0.5,2.6-1.5,3.6l-7,6.9L20,26l-0.5-0.5l-2-2c-1,1-1.7,1.6-1.7,1.6   L15,26l-0.9-0.8L2.3,13.7C0.8,12.2,0,10.2,0,8.1C0,3.6,3.8,0,8.4,0c2.6,0,5,1,6.6,3c1.6-2,4-3,6.6-3C26.2,0,30,3.6,30,8.1   C30,9.8,29.4,11.4,28.4,12.7L28.4,12.7z M20,23.4l5.8-5.7C26.5,17.1,27,16,27,15c0-1.9-1.6-3-3.6-3c-1.6,0-2.8,1-3.4,2.3   C19.5,13,18.2,12,16.6,12c-2,0-3.6,1-3.6,3c0,0.9,0.4,1.9,1.1,2.5L20,23.4L20,23.4z M21.2,2c-3,0-5.2,1.7-6.2,4c-1-2.3-3.4-4-6.2-4   C5,2,2,4.8,2,8.3c0,1.7,0.7,3.2,1.9,4.3L15,23.4l1.2-1.2l-3.8-3.8C11.5,17.5,11,16.3,11,15c0-2.7,2.3-5,5-5c1.6,0,3,0.6,4,1.8   c0.9-1.2,2.4-1.8,4-1.8c1.2,0,2.4,0.5,3.2,1.2c0.5-0.9,0.8-1.9,0.8-2.9C28,4.8,25,2,21.2,2L21.2,2z"/>
</g>
<g id="Слой_2_1_">
	<path class="st2" d="M19.4,26h-8.9c-0.6,0-1-0.4-1-1l0,0c0-0.5,0.4-1,1-1h8.9c0.5,0,1,0.5,1,1l0,0C20.4,25.5,20,26,19.4,26z"/>
</g>
<g id="Слой_3">
	<path class="st2" d="M15,0L15,0c-0.6,0-1,0.4-1,1v23c0,0.5,0.4,1,1,1l0,0c0.5,0,1-0.4,1-1V1C16,0.4,15.6,0,15,0z"/>
	<path class="st2" d="M15.9,3.4L15.9,3.4c-0.2-0.5-0.8-0.7-1.3-0.5L3.7,8C3.2,8.2,3,8.8,3.2,9.3l0,0C3.5,9.8,4.1,10,4.6,9.8   l10.9-5.1C15.9,4.5,16.1,3.9,15.9,3.4z"/>
	<path class="st2" d="M14.1,3.4L14.1,3.4c-0.2,0.5,0,1.1,0.5,1.3l10.9,5.1c0.5,0.2,1.1,0,1.3-0.5l0,0c0.2-0.5,0-1.1-0.5-1.3   L15.5,2.9C15,2.7,14.4,2.9,14.1,3.4z"/>
	<circle class="st3" cx="15" cy="4" r="1.9"/>
</g>
<g id="Слой_5">
</g>
<g id="Слой_6">
	<path class="st2" d="M0.7,19.5"/>
	<path class="st2" d="M1.9,19.5"/>
	<path class="st2" d="M12.2,20"/>
	<path class="st2" d="M8.2,18.2H0.7c0,0-0.4,0.8,0.4,1.5c0.8,0.8,2.7,1.5,3.3,1.5s2.6-0.8,3.4-1.6C8.6,19,8.2,18.2,8.2,18.2H0.7"/>
	<path class="st2" d="M28.4,19L28.4,19c-0.3,0.1-0.5-0.1-0.6-0.4l-2.4-8.9c-0.1-0.3,0.1-0.5,0.4-0.6l0,0C26,9,26.2,9.2,26.3,9.4   l2.4,8.9C28.8,18.6,28.6,18.9,28.4,19z"/>
	<path class="st2" d="M23.1,19L23.1,19c-0.3-0.1-0.4-0.3-0.4-0.6l2.4-8.9c0.1-0.3,0.3-0.4,0.6-0.4l0,0c0.3,0.1,0.4,0.3,0.4,0.6   l-2.4,8.9C23.7,18.9,23.4,19.1,23.1,19z"/>
	<path class="st2" d="M22,18.4"/>
	<path class="st2" d="M23.2,18.4"/>
	<path class="st2" d="M33.5,18.8"/>
	<g id="Слой_4">
		<path class="st2" d="M7.1,19L7.1,19c-0.3,0.1-0.5-0.1-0.6-0.4L4.1,9.7C4,9.4,4.2,9.2,4.4,9.1l0,0C4.7,9,5,9.2,5.1,9.4l2.4,8.9    C7.5,18.6,7.4,18.9,7.1,19z"/>
		<path class="st2" d="M1.9,19L1.9,19c-0.3-0.1-0.4-0.3-0.4-0.6l2.4-8.9C4,9.2,4.3,9,4.5,9.1l0,0C4.8,9.2,5,9.4,4.9,9.7l-2.4,8.9    C2.4,18.9,2.1,19.1,1.9,19z"/>
	</g>
</g>
<path class="st2" d="M29.4,18.2h-7.5c0,0-0.4,0.8,0.4,1.5c0.8,0.8,2.7,1.5,3.3,1.5s2.6-0.8,3.4-1.6C29.8,19,29.4,18.2,29.4,18.2  h-7.5"/>
</svg>