<?xml version="1.0" encoding="UTF-8" standalone="no"?>
<svg xmlns="http://www.w3.org/2000/svg" viewBox="-290 384 30 26">
 <path d="m-261.6 396.7c0.3 0.7 0.6 1.4 0.6 2.2 0 1.4-0.5 2.6-1.5 3.6l-7 6.9-0.5 0.6-0.5-0.5-2-2c-1 1-1.7 1.6-1.7 1.6l-0.8 0.9-0.9-0.8-11.8-11.5c-1.5-1.5-2.3-3.5-2.3-5.6 0-4.5 3.8-8.1 8.4-8.1 2.6 0 5 1 6.6 3 1.6-2 4-3 6.6-3 4.6 0 8.4 3.6 8.4 8.1 0 1.7-0.6 3.3-1.6 4.6zm-8.4 10.7l5.8-5.7c0.7-0.6 1.2-1.7 1.2-2.7 0-1.9-1.6-3-3.6-3-1.6 0-2.8 1-3.4 2.3-0.5-1.3-1.8-2.3-3.4-2.3-2 0-3.6 1-3.6 3 0 0.9 0.4 1.9 1.1 2.5l5.9 5.9zm1.2-21.4c-3 0-5.2 1.7-6.2 4-1-2.3-3.4-4-6.2-4-3.8 0-6.8 2.8-6.8 6.3 0 1.7 0.7 3.2 1.9 4.3l11.1 10.8 1.2-1.2-3.8-3.8c-0.9-0.9-1.4-2.1-1.4-3.4 0-2.7 2.3-5 5-5 1.6 0 3 0.6 4 1.8 0.9-1.2 2.4-1.8 4-1.8 1.2 0 2.4 0.5 3.2 1.2 0.5-0.9 0.8-1.9 0.8-2.9 0-3.5-3-6.3-6.8-6.3z" fill="#31b0f8"/>
</svg>