<?xml version="1.0" encoding="UTF-8"?>
<!-- Generator: Adobe Illustrator 21.1.0, SVG Export Plug-In . SVG Version: 6.00 Build 0)  -->
<svg version="1.1" id="Слой_1" xmlns="http://www.w3.org/2000/svg" xmlns:xlink="http://www.w3.org/1999/xlink" x="0px" y="0px" viewBox="0 0 64 64" style="enable-background:new 0 0 64 64;" xml:space="preserve">
<style type="text/css">
	.st0{fill:url(#SVGID_1_);}
	.st1{fill:#FFFFFF;}
</style>
<g>
	<linearGradient id="SVGID_1_" gradientUnits="userSpaceOnUse" x1="15.9973" y1="59.7174" x2="48.0027" y2="4.2826">
		<stop offset="0" style="stop-color:#F9DA84"/>
		<stop offset="0.25" style="stop-color:#EB843B"/>
		<stop offset="0.5" style="stop-color:#C53C75"/>
		<stop offset="0.75" style="stop-color:#8A3BB8"/>
		<stop offset="1" style="stop-color:#4F5ECE"/>
		<stop offset="1" style="stop-color:#000000"/>
	</linearGradient>
	<circle class="st0" cx="32" cy="32" r="32"/>
</g>
<g>
	<path class="st1" d="M41,12H23c-6.1,0-11,5-11,11v18c0,6.1,5,11,11,11h18c6.1,0,11-5,11-11V23C52,17,47,12,41,12z M48.4,41   c0,4.1-3.4,7.5-7.5,7.5H23c-4.1,0-7.5-3.4-7.5-7.5V23c0-4.1,3.4-7.5,7.5-7.5h18c4.1,0,7.5,3.4,7.5,7.5L48.4,41L48.4,41z"/>
	<path class="st1" d="M32,21.7c-5.7,0-10.3,4.6-10.3,10.3S26.3,42.3,32,42.3S42.3,37.7,42.3,32S37.7,21.7,32,21.7z M32,38.8   c-3.7,0-6.8-3-6.8-6.8c0-3.7,3-6.8,6.8-6.8s6.8,3,6.8,6.8C38.8,35.7,35.7,38.8,32,38.8z"/>
	<path class="st1" d="M42.7,18.7c-0.7,0-1.4,0.3-1.8,0.8c-0.5,0.5-0.8,1.2-0.8,1.8c0,0.7,0.3,1.4,0.8,1.8c0.5,0.5,1.2,0.8,1.8,0.8   c0.7,0,1.4-0.3,1.8-0.8c0.5-0.5,0.8-1.2,0.8-1.8c0-0.7-0.3-1.4-0.8-1.8C44.1,19,43.4,18.7,42.7,18.7z"/>
</g>
</svg>