<svg width="60" height="60" viewBox="0 0 60 60" fill="none" xmlns="http://www.w3.org/2000/svg">
<path d="M33.3725 5.27753C32.42 5.1084 31.4387 5.24536 30.5687 5.66882C29.4462 4.96928 27.9936 5.10927 27.0254 6.01054L23.9129 8.92478V8.67088C23.9129 6.04837 21.7869 3.92236 19.164 3.92236C17.5905 3.92236 16.3149 5.19797 16.3149 6.77138V16.0736L13.9898 18.5953C13.3294 19.3083 12.9698 20.2487 12.9851 21.2204C12.9664 24.5311 13.2107 27.8388 13.7163 31.1109C13.7368 31.1857 13.7668 31.2574 13.8055 31.3248L12.2555 35.6851C11.666 37.308 12.2594 39.1241 13.6933 40.0862L14.2359 40.4549C13.682 42.0692 14.2707 43.8547 15.6754 44.8238L31.0531 55.366C31.3122 55.5434 31.4665 55.8369 31.4665 56.1504C31.4665 57.7242 32.7421 58.9998 34.3156 58.9998H48.1185C48.985 59.002 49.805 58.6068 50.3428 57.9277C50.8914 57.2373 51.0906 56.3321 50.8823 55.4752L49.4958 50.3467C49.008 48.1055 48.8646 45.8029 49.0702 43.5187C49.8528 33.593 43.1987 26.4228 41.5109 25.1768C38.4063 22.8882 36.0907 20.5022 35.156 18.6301C33.7551 15.821 34.6995 13.8994 35.612 12.0416C36.3776 10.483 37.1698 8.87217 36.0459 7.18267C35.452 6.20967 34.4864 5.52143 33.3725 5.27753V5.27753ZM19.164 5.82186C20.7378 5.82186 22.0134 7.09746 22.0134 8.67088V10.7034L18.2144 14.2594V6.77138C18.2144 6.51966 18.3144 6.27793 18.4927 6.10011C18.6705 5.92185 18.9122 5.82186 19.164 5.82186ZM14.8846 21.1947C14.8767 20.7091 15.0567 20.2391 15.3867 19.8831L17.8931 17.1601C17.9162 17.1406 17.9375 17.1201 17.9579 17.0984L23.5351 11.8795C23.589 11.8386 23.6381 11.7921 23.682 11.7408L28.3475 7.3718C28.7192 7.01007 29.3118 7.01007 29.6836 7.3718L29.7483 7.30702C29.7714 7.33397 29.7962 7.35875 29.8222 7.38223L29.7622 7.45918C30.7939 8.57697 30.7653 10.3078 29.6979 11.3912L25.9624 14.9776L20.7026 19.7148C20.3609 20.0787 20.1813 20.5652 20.2039 21.0634C18.4366 21.2934 16.9466 22.4938 16.3462 24.172L15.1541 27.5249C14.9632 25.1902 14.9024 22.5469 14.8846 21.1947ZM22.0951 21.0178L24.8398 18.5483C24.8037 19.3726 24.8337 20.1987 24.9303 21.0178H22.0951ZM14.042 36.3329L18.1375 24.8085C18.5475 23.6694 19.6305 22.9116 20.8413 22.9173H28.9914C29.1884 22.9186 29.3805 22.9803 29.541 23.0942L34.4573 26.578C34.6495 26.7111 34.766 26.9289 34.7694 27.1628C34.7712 27.2963 34.7364 27.4276 34.669 27.5428C34.6355 27.598 34.5921 27.6528 34.5521 27.7071L33.0095 26.6037C32.2069 26.0272 31.2435 25.7176 30.2553 25.7185H22.7808C20.77 25.7215 18.9792 26.991 18.3101 28.8875L14.8911 38.6036L14.7676 38.5202C14.0494 38.0463 13.7494 37.142 14.042 36.3329V36.3329ZM33.9112 11.2164C32.9517 13.1672 31.6391 15.8397 33.4608 19.4909C34.9168 22.4095 38.4254 25.272 40.3875 26.7163C41.6488 27.6445 47.8981 34.2738 47.1803 43.3809C46.9586 45.8695 47.1185 48.3776 47.655 50.8175L49.0415 55.9465C49.1063 56.2278 49.0393 56.5234 48.8598 56.7499C48.6802 56.976 48.4072 57.1082 48.1185 57.109H34.3108C33.7864 57.109 33.3612 56.6834 33.3612 56.1591C33.3625 55.2195 32.9004 54.34 32.1265 53.8074L16.7497 43.2652C16.041 42.7774 15.7471 41.8753 16.0328 41.0636L20.1004 29.5144C20.5022 28.3788 21.5743 27.6184 22.779 27.6149H30.2535C30.8461 27.6145 31.4239 27.8001 31.9052 28.1458L36.2903 31.2848C36.5985 31.5091 36.6846 31.9309 36.4898 32.2582C36.0916 32.926 35.4368 33.4004 34.679 33.5717C33.9208 33.7425 33.1256 33.5947 32.4795 33.1625L30.58 31.8948C30.1131 31.5804 29.5627 31.4131 28.9997 31.4139H26.0746C24.8381 31.4065 23.7403 32.2043 23.366 33.383C23.3099 33.5604 23.2299 33.7808 23.1399 34.0286C22.456 35.9185 20.8604 40.341 24.4807 41.7931C24.7985 41.9344 25.1681 41.8905 25.4442 41.6792C25.7202 41.4679 25.8585 41.1227 25.805 40.7792C25.7515 40.4353 25.5146 40.1488 25.1876 40.031C23.5947 39.3919 23.9307 37.4267 24.9263 34.6755C25.0268 34.3982 25.1163 34.1542 25.1772 33.9564C25.3037 33.5691 25.6672 33.3086 26.0746 33.3134H28.9988C29.1853 33.3134 29.3675 33.3691 29.5223 33.473L31.4217 34.7421C32.5008 35.4625 33.8282 35.709 35.0938 35.4238C36.3594 35.1386 37.4528 34.3464 38.1185 33.233C38.8149 32.0556 38.5002 30.5413 37.392 29.7396L36.0937 28.8058C36.1629 28.711 36.2381 28.6162 36.2968 28.521C37.002 27.3445 36.6794 25.8237 35.5581 25.0346L30.6431 21.5452C30.1601 21.2034 29.5831 21.0191 28.9914 21.0178H26.8437C26.6463 19.547 26.6941 18.0531 26.9845 16.5975L31.0313 12.7494C32.4943 11.2795 32.8343 9.02999 31.8709 7.19311C32.8778 6.87616 33.9673 7.31876 34.4686 8.24742C34.9394 8.95608 34.6755 9.66084 33.9112 11.2164V11.2164Z" fill="black"/>
<path d="M29.8735 41.9128C29.5514 41.8054 29.1962 41.878 28.9418 42.1032C28.6875 42.3285 28.5727 42.6724 28.6405 43.0054C28.7088 43.3384 28.9492 43.6097 29.2714 43.7175C31.4635 44.4523 37.1546 47.0883 37.1546 50.4142C37.1546 50.9386 37.5798 51.3638 38.1041 51.3638C38.6289 51.3638 39.0541 50.9386 39.0541 50.4142C39.051 45.0375 30.2487 42.0354 29.8735 41.9128Z" fill="black"/>
<path d="M36.2894 38.4368C36.0837 38.1664 35.7498 38.0264 35.4133 38.0694C35.0764 38.1125 34.7881 38.3316 34.6573 38.6446C34.526 38.9577 34.5716 39.3168 34.7773 39.5868C36.2263 41.4863 38.6371 43.7601 41.8918 43.7601C42.4165 43.7601 42.8417 43.3349 42.8417 42.8101C42.8417 42.2858 42.4165 41.8606 41.8918 41.8606C39.4149 41.8606 37.4811 39.9981 36.2894 38.4368V38.4368Z" fill="black"/>
<path d="M36.9389 2.31814L36.0337 3.26811C35.7864 3.51114 35.6912 3.86982 35.7855 4.20329C35.8798 4.53719 36.149 4.79327 36.4868 4.87066C36.825 4.94848 37.1785 4.83587 37.4089 4.57675L38.3141 3.62679C38.5615 3.38376 38.6567 3.02507 38.5623 2.69117C38.468 2.35771 38.1989 2.10163 37.8611 2.02424C37.5228 1.94642 37.1694 2.05902 36.9389 2.31814V2.31814Z" fill="black"/>
<path d="M41.4348 6.58158C41.367 6.33898 41.2053 6.13333 40.9853 6.00986C40.7657 5.88639 40.5057 5.85508 40.2631 5.92334L39.0284 6.27115C38.5676 6.39637 38.271 6.84418 38.3363 7.31764C38.4015 7.79066 38.808 8.14152 39.2858 8.1376C39.3732 8.1376 39.4601 8.12543 39.544 8.10152L40.7788 7.75458C41.0214 7.68632 41.227 7.52415 41.3501 7.30416C41.4731 7.08417 41.5035 6.82418 41.4348 6.58158V6.58158Z" fill="black"/>
<path d="M38.7889 10.4443C38.2837 10.3025 37.7593 10.5969 37.6176 11.1021C37.4754 11.6073 37.7702 12.1316 38.275 12.2733L39.5097 12.6211C39.594 12.6446 39.681 12.6568 39.7684 12.6564C40.2427 12.6559 40.6444 12.3055 40.7088 11.8355C40.7731 11.3651 40.4805 10.9199 40.0236 10.7917L38.7889 10.4443Z" fill="black"/>
</svg>
