<?xml version="1.0" encoding="UTF-8" standalone="no"?>
<svg id="Capa_1" xmlns="http://www.w3.org/2000/svg" viewBox="-49 222.8 512 348.4">
 <style>.st0{fill:#fff}</style>
 <path class="st0" d="m372.8 290.5l-165.8 146.1-165.8-146.1c-6.6-5.8-16.7-5.2-22.5 1.4s-5.2 16.7 1.4 22.5l176.4 155.4c3 2.7 6.8 4 10.5 4 3.8 0 7.5-1.3 10.5-4l176.3-155.4c6.6-5.8 7.2-15.9 1.4-22.5-5.7-6.5-15.8-7.2-22.4-1.4z"/>
 <path class="st0" d="m415.2 222.8h-416.4c-26.4 0-47.8 21.5-47.8 47.8v252.8c0 26.4 21.4 47.8 47.8 47.8h416.4c26.3 0 47.8-21.4 47.8-47.8v-252.8c0-26.3-21.4-47.8-47.8-47.8zm15.9 300.6c0 8.8-7.1 15.9-15.9 15.9h-416.4c-8.8 0-15.9-7.1-15.9-15.9v-252.8c0-8.8 7.1-15.9 15.9-15.9h416.4c8.8 0 15.9 7.1 15.9 15.9v252.8z"/>
</svg>