<?xml version="1.0" encoding="UTF-8"?>
<!-- Generator: Adobe Illustrator 21.1.0, SVG Export Plug-In . SVG Version: 6.00 Build 0)  -->
<svg version="1.1" id="Слой_1" xmlns="http://www.w3.org/2000/svg" xmlns:xlink="http://www.w3.org/1999/xlink" x="0px" y="0px" viewBox="0 0 64 64" style="enable-background:new 0 0 64 64;" xml:space="preserve">
<style type="text/css">
	.st0{fill:#EA973E;}
	.st1{fill:#FFFFFF;}
</style>
<g>
	<circle class="st0" cx="32" cy="32" r="32"/>
</g>
<g>
	<path class="st1" d="M32,33.6c6.1,0,11.1-4.8,11.1-10.8S38.1,12,32,12s-11.1,4.8-11.1,10.8C20.9,28.8,25.9,33.6,32,33.6z M32,17   c3.3,0,6,2.6,6,5.8s-2.7,5.8-6,5.8s-6-2.6-6-5.8S28.7,17,32,17z"/>
	<path class="st1" d="M42.9,38.8c1.2-0.8,1.9-2.1,1.9-3.5c0-1.2-0.7-2.2-1.7-2.8c-1.1-0.5-2.4-0.4-3.4,0.3c-4.6,3.2-10.8,3.2-15.3,0   c-1-0.7-2.3-0.8-3.4-0.3c-1.1,0.5-1.8,1.6-1.7,2.8c0,1.4,0.7,2.7,1.9,3.5c1.5,1,3.2,1.8,5,2.3c0.3,0.1,0.6,0.2,0.9,0.3l-5.2,4.9   c-1.4,1.3-1.4,3.4-0.1,4.7c1.3,1.3,3.5,1.4,4.8,0.1c0,0,0.1-0.1,0.1-0.1l5.3-5.3l5.3,5.3c1.3,1.3,3.5,1.4,4.8,0.1   c1.4-1.3,1.4-3.4,0.1-4.7c0,0-0.1-0.1-0.1-0.1l-5.2-4.9c0.3-0.1,0.6-0.2,0.9-0.3C39.6,40.6,41.3,39.8,42.9,38.8z"/>
</g>
</svg>