<?xml version="1.0" encoding="UTF-8" standalone="no"?>
<svg id="Capa_1" xmlns="http://www.w3.org/2000/svg" viewBox="-49 197 512 400.1">
 <style>.st0{fill:#eaeaea}</style>
 <path class="st0" d="m105.3 543.4c3.1-3.1 8.2-3.1 11.3 0s3.1 8.2 0 11.3l-40 40c-3.1 3.1-8.2 3.1-11.3 0-1.6-1.6-2.4-3.6-2.4-5.7v-128c0-3 1.7-5.7 4.1-7l287.5-191.7c3.6-2.5 8.6-1.5 11.1 2.2s1.5 8.6-2.2 11.1l-284.4 189.7v104.5l26.3-26.4z"/>
 <path class="st0" d="m97.3 498.6c-3.1-3.1-3.1-8.2 0-11.3s8.2-3.1 11.3 0l89.3 89.3 249.1-358.1v-2.9l-472.8 137.3 102.4 102.4c3.1 3.1 3.1 8.2 0 11.3s-8.2 3.1-11.3 0l-112-112c-0.9-0.9-1.6-2.1-2-3.4-1.2-4.2 1.2-8.7 5.4-9.9l495.4-143.8c0.9-0.3 1.9-0.5 2.9-0.5 4.4 0 8 3.6 8 8v16c0 1.6-0.5 3.2-1.4 4.6l-256 368.1c-0.3 0.4-0.6 0.8-0.9 1.1-3.1 3.1-8.2 3.1-11.3 0l-96.1-96.2z"/>
</svg>