<?xml version="1.0" encoding="UTF-8" standalone="no"?>
<!-- Generator: Adobe Illustrator 21.1.0, SVG Export Plug-In . SVG Version: 6.00 Build 0)  -->
<svg id="Слой_1" style="enable-background:new 0 0 30 26" xmlns="http://www.w3.org/2000/svg" xml:space="preserve" viewBox="0 0 30 26" version="1.1" y="0px" x="0px" xmlns:xlink="http://www.w3.org/1999/xlink">
<style type="text/css">
	.st0{fill:#000000;stroke:#000000;stroke-width:0.5;stroke-miterlimit:10;}
</style>
<path class="st0" d="m27.4 11.5c-0.5-2.7-1.8-5.2-3.7-7.2s-4.5-3.3-7.2-3.7c-0.4-0.1-0.7 0.2-0.8 0.6s0.2 0.8 0.6 0.8c2.4 0.4 4.7 1.6 6.4 3.3 1.8 1.8 2.9 4 3.3 6.4 0.1 0.3 0.4 0.6 0.7 0.6h0.1c0.4 0 0.7-0.4 0.6-0.8z"/>
<path class="st0" d="m22.2 16c-0.5-0.5-1.1-0.8-1.8-0.8-0.6 0-1.3 0.3-1.8 0.8l-1.6 1.6c-0.1-0.1-0.3-0.1-0.4-0.2-0.2-0.1-0.4-0.2-0.5-0.3-1.6-1-3-2.3-4.3-3.9-0.7-0.8-1.1-1.5-1.4-2.2l1.2-1.2 0.4-0.4c1.1-1.1 1.1-2.5 0-3.6l-1.4-1.4-0.5-0.5c-0.3-0.3-0.6-0.7-1-1-0.5-0.6-1.1-0.9-1.8-0.9s-1.2 0.3-1.7 0.8l-1.8 1.8c-0.7 0.7-1.1 1.5-1.2 2.4-0.1 1.5 0.3 3 0.7 3.9 0.8 2.3 2.1 4.4 4 6.7 2.3 2.7 5.1 4.9 8.2 6.4 1.2 0.6 2.8 1.2 4.6 1.4h0.3c1.2 0 2.2-0.4 3-1.3l0.9-0.9c0.2-0.2 0.5-0.4 0.7-0.7 0.5-0.5 0.8-1.2 0.8-1.8 0-0.7-0.3-1.3-0.8-1.8l-2.8-2.9zm1.9 5.5l-0.6 0.6-1 1c-0.5 0.6-1.2 0.8-2 0.8h-0.2c-1.6-0.1-3-0.7-4.1-1.2-3-1.4-5.6-3.5-7.7-6.1-1.8-2.2-3-4.1-3.8-6.3-0.6-1.2-0.7-2.2-0.7-3.1 0.1-0.7 0.3-1.2 0.8-1.6l1.8-1.8c0.3-0.2 0.5-0.4 0.8-0.4s0.6 0.2 0.8 0.4l0.9 0.9 0.5 0.5 1.4 1.5c0.6 0.6 0.6 1.1 0 1.6l-0.5 0.5c-0.4 0.5-0.9 0.9-1.3 1.3-0.5 0.5-0.4 0.9-0.3 1.2 0.4 0.9 0.9 1.8 1.7 2.8 1.4 1.8 3 3.2 4.7 4.2 0.2 0.1 0.4 0.2 0.6 0.4 0.2 0.1 0.4 0.2 0.5 0.3h0.1c0.2 0.1 0.3 0.1 0.5 0.1 0.4 0 0.7-0.3 0.8-0.4l1.8-1.8c0.2-0.2 0.5-0.4 0.8-0.4s0.6 0.2 0.8 0.4l2.9 2.9c0.5 0.6 0.5 1.1 0 1.7z"/>
<path class="st0" d="m16 6.5c1.4 0.2 2.6 0.9 3.6 1.9s1.6 2.2 1.9 3.6c0.1 0.3 0.4 0.6 0.7 0.6h0.1c0.4-0.1 0.6-0.4 0.6-0.8-0.3-1.7-1.1-3.2-2.3-4.4s-2.7-2-4.4-2.3c-0.4-0.1-0.8 0.2-0.8 0.6s0.2 0.7 0.6 0.8z"/>
</svg>
