<svg width="60" height="60" viewBox="0 0 60 60" fill="none" xmlns="http://www.w3.org/2000/svg">
<g clip-path="url(#clip0)">
<rect width="60" height="60" fill="white"/>
<path d="M22 18.0967V11.0145C24.2386 10.3885 26.1844 8.97571 27.4792 7H33.1146C34.4094 8.97562 36.3551 10.3884 38.5938 11.0145V18.0967C38.5938 23.4873 35.2935 28.1769 30.2969 30.0147C25.3002 28.1769 22 23.4873 22 18.0967Z" stroke="black" stroke-width="2"/>
<path d="M36.601 16L30.4138 22.1871C30.0936 22.5076 29.6737 22.6677 29.2538 22.6677C28.8339 22.6677 28.414 22.5076 28.0936 22.1871L25 19.0936" stroke="black" stroke-width="2"/>
<path d="M50.854 39.8739L49.8759 40.8617L51.1235 41.475C54.6036 43.1857 57 46.7656 57 50.8906V56.3594C57 56.7132 56.7132 57 56.3594 57H3.64062C3.28685 57 3 56.7132 3 56.3594V50.8906C3 46.7656 5.39637 43.1857 8.87655 41.475L10.1241 40.8617L9.14598 39.8739C8.05022 38.7673 7.375 37.2505 7.375 35.5781C7.375 32.2103 10.1166 29.4688 13.4844 29.4688C16.8522 29.4688 19.5938 32.2103 19.5938 35.5781C19.5938 37.2475 18.9207 38.7619 17.8283 39.8681L16.8508 40.8579L18.1005 41.4691C20.4936 42.6394 22.3746 44.6952 23.3127 47.2225L23.791 48.5113L24.8699 47.6593C25.2075 47.3927 25.5654 47.1519 25.9411 46.9402L27.006 46.3398L26.2065 45.415C25.4446 44.5338 24.9844 43.3905 24.9844 42.1406C24.9844 39.3759 27.2353 37.125 30 37.125C32.7647 37.125 35.0156 39.3759 35.0156 42.1406C35.0156 43.3905 34.5554 44.5338 33.7935 45.415L32.9941 46.3396L34.0588 46.9401C34.4347 47.1521 34.7926 47.3928 35.1301 47.6593L36.209 48.5113L36.6873 47.2225C37.6254 44.6952 39.5063 42.6394 41.8995 41.4691L43.1493 40.8579L42.1717 39.8681C41.0793 38.7619 40.4062 37.2475 40.4062 35.5781C40.4062 32.2103 43.1478 29.4688 46.5156 29.4688C49.8834 29.4688 52.625 32.2103 52.625 35.5781C52.625 37.2505 51.9498 38.7673 50.854 39.8739Z" stroke="black" stroke-width="2"/>
</g>
<defs>
<clipPath id="clip0">
<rect width="60" height="60" fill="white"/>
</clipPath>
</defs>
</svg>
