<?xml version="1.0" encoding="UTF-8" standalone="no"?>
<!-- Generator: Adobe Illustrator 19.0.0, SVG Export Plug-In . SVG Version: 6.00 Build 0)  -->

<svg
   xmlns:dc="http://purl.org/dc/elements/1.1/"
   xmlns:cc="http://creativecommons.org/ns#"
   xmlns:rdf="http://www.w3.org/1999/02/22-rdf-syntax-ns#"
   xmlns:svg="http://www.w3.org/2000/svg"
   xmlns="http://www.w3.org/2000/svg"
   xmlns:sodipodi="http://sodipodi.sourceforge.net/DTD/sodipodi-0.dtd"
   xmlns:inkscape="http://www.inkscape.org/namespaces/inkscape"
   version="1.1"
   id="Capa_1"
   x="0px"
   y="0px"
   viewBox="0 0 511.999 511.999"
   style="enable-background:new 0 0 511.999 511.999;"
   xml:space="preserve"
   sodipodi:docname="search01.svg"
   inkscape:version="0.92.4 (5da689c313, 2019-01-14)"><metadata
   id="metadata43"><rdf:RDF><cc:Work
       rdf:about=""><dc:format>image/svg+xml</dc:format><dc:type
         rdf:resource="http://purl.org/dc/dcmitype/StillImage" /><dc:title></dc:title></cc:Work></rdf:RDF></metadata><defs
   id="defs41" /><sodipodi:namedview
   pagecolor="#ffffff"
   bordercolor="#666666"
   borderopacity="1"
   objecttolerance="10"
   gridtolerance="10"
   guidetolerance="10"
   inkscape:pageopacity="0"
   inkscape:pageshadow="2"
   inkscape:window-width="1920"
   inkscape:window-height="1017"
   id="namedview39"
   showgrid="false"
   inkscape:zoom="0.46093841"
   inkscape:cx="255.9995"
   inkscape:cy="255.9995"
   inkscape:window-x="1912"
   inkscape:window-y="-8"
   inkscape:window-maximized="1"
   inkscape:current-layer="Capa_1" />
<g
   id="g6"
   transform="translate(2.169495,-10e-6)"
   style="fill:#ffffff;fill-opacity:1">
	<g
   id="g4"
   style="fill:#ffffff;fill-opacity:1">
		<path
   d="M 508.874,478.708 360.142,329.976 c 28.21,-34.827 45.191,-79.103 45.191,-127.309 C 405.333,90.917 314.416,0 202.666,0 90.916,0 0,90.917 0,202.667 c 0,111.75 90.917,202.667 202.667,202.667 48.206,0 92.482,-16.982 127.309,-45.191 l 148.732,148.732 c 4.167,4.165 10.919,4.165 15.086,0 l 15.081,-15.082 c 4.165,-4.166 4.165,-10.92 -10e-4,-15.085 z M 202.667,362.667 c -88.229,0 -160,-71.771 -160,-160 0,-88.229 71.771,-160 160,-160 88.229,0 160,71.771 160,160 0,88.229 -71.771,160 -160,160 z"
   id="path2"
   inkscape:connector-curvature="0"
   style="fill:#ffffff;fill-opacity:1" />
	</g>
</g>
<g
   id="g8">
</g>
<g
   id="g10">
</g>
<g
   id="g12">
</g>
<g
   id="g14">
</g>
<g
   id="g16">
</g>
<g
   id="g18">
</g>
<g
   id="g20">
</g>
<g
   id="g22">
</g>
<g
   id="g24">
</g>
<g
   id="g26">
</g>
<g
   id="g28">
</g>
<g
   id="g30">
</g>
<g
   id="g32">
</g>
<g
   id="g34">
</g>
<g
   id="g36">
</g>
<g
   inkscape:groupmode="layer"
   id="layer1"
   inkscape:label="Layer 1"
   style="display:inline"
   sodipodi:insensitive="true" /></svg>