<svg width="60" height="60" viewBox="0 0 60 60" fill="none" xmlns="http://www.w3.org/2000/svg">
<g clip-path="url(#clip0)">
<path d="M31.2205 44.3765C31.118 44.3765 31.0156 44.3549 30.9191 44.311L25.7223 41.9422C25.3477 41.7712 25.1787 41.3213 25.345 40.9369C25.5115 40.5518 25.9503 40.3794 26.3247 40.5497L30.478 42.4433V36.2911C30.478 35.8704 30.8102 35.5295 31.2202 35.5295C31.6301 35.5295 31.9623 35.8704 31.9623 36.2911V43.6149C31.9623 43.8729 31.8353 44.113 31.6245 44.2534C31.5031 44.3348 31.3621 44.3765 31.2205 44.3765V44.3765Z" fill="black"/>
<path d="M31.6251 17.7344C31.414 17.5934 31.1489 17.5727 30.9194 17.6768L19.3196 22.9644H10.9169C10.5069 22.9644 10.1747 23.3053 10.1747 23.726V38.2618C10.1747 38.6825 10.5069 39.0234 10.9169 39.0234H17.7343C18.1443 39.0234 18.4765 38.6825 18.4765 38.2618C18.4765 37.8411 18.1443 37.5002 17.7343 37.5002H11.6591V24.4876H18.7348V36.5564C18.7348 36.9771 19.067 37.318 19.477 37.318C19.8869 37.318 20.2192 36.9771 20.2192 36.5564V24.2211L30.4786 19.5443V24.9763C30.4786 25.397 30.8108 25.7379 31.2207 25.7379C31.6307 25.7379 31.9629 25.397 31.9629 24.9763V18.3726C31.9626 18.1152 31.8359 17.8749 31.6251 17.7344V17.7344Z" fill="black"/>
<path d="M42.7992 47.3232C42.6092 47.3232 42.4195 47.2488 42.2743 47.1002C41.9842 46.8028 41.9842 46.3206 42.2743 46.0233C48.7726 39.3548 50.2047 28.9429 45.7572 20.703C45.5586 20.3353 45.6883 19.8717 46.047 19.6682C46.4053 19.4647 46.8571 19.5972 47.0555 19.9655C51.8221 28.796 50.2875 39.9546 43.3237 47.1005C43.1792 47.2485 42.9892 47.3232 42.7992 47.3232Z" fill="black"/>
<path d="M39.2248 43.6554C39.0348 43.6554 38.8451 43.5811 38.6999 43.4324C38.4099 43.1348 38.4099 42.6529 38.6999 42.3555C43.2362 37.7004 44.5451 30.5268 41.9569 24.5047C41.7913 24.1196 41.9614 23.6703 42.3363 23.5006C42.7113 23.3312 43.1495 23.5052 43.3149 23.8899C46.1485 30.4829 44.7158 38.3361 39.7494 43.4321C39.6048 43.5808 39.4148 43.6554 39.2248 43.6554Z" fill="black"/>
<path d="M35.5711 39.9059C35.3811 39.9059 35.1914 39.8316 35.0463 39.6829C34.7562 39.3853 34.7562 38.903 35.0463 38.606C37.6035 35.9822 38.6566 32.2507 37.863 28.6243C37.7731 28.2136 38.0248 27.8063 38.4247 27.7143C38.8267 27.6226 39.2218 27.8803 39.3115 28.2907C40.2169 32.4292 39.0149 36.688 36.0957 39.6829C35.9508 39.8316 35.7608 39.9059 35.5711 39.9059V39.9059Z" fill="black"/>
<path d="M30 1.74878C14.2852 1.74878 1.50029 14.868 1.50029 30.9937C1.50029 47.1193 14.2852 60.2385 30 60.2385C45.7148 60.2385 58.4997 47.1193 58.4997 30.9937C58.4997 14.868 45.7148 1.74878 30 1.74878V1.74878ZM30 58.7154C15.1037 58.7154 2.98467 46.2795 2.98467 30.9937C2.98467 15.7079 15.1037 3.27197 30 3.27197C44.8963 3.27197 57.0153 15.7079 57.0153 30.9937C57.0153 46.2795 44.8963 58.7154 30 58.7154Z" fill="black"/>
<path d="M47.5785 12.3322C47.5744 12.125 47.4889 11.9289 47.3411 11.7881C42.6014 7.27857 36.4428 4.79517 30 4.79517C15.9222 4.79517 4.46904 16.5478 4.46904 30.9937C4.46904 37.6049 6.88916 43.9246 11.2838 48.7882C11.421 48.9399 11.6121 49.0276 11.814 49.0319H11.828C12.0245 49.0319 12.2136 48.9517 12.3529 48.8089L47.3609 12.8851C47.5037 12.7386 47.5824 12.539 47.5785 12.3322V12.3322ZM11.8568 47.1635C8.04401 42.6671 5.95341 36.9563 5.95341 30.9937C5.95341 17.3877 16.7407 6.31835 30 6.31835C35.8107 6.31835 41.3759 8.46361 45.7578 12.3761L11.8568 47.1635Z" fill="black"/>
<path d="M49.4545 14.0547C49.3203 13.8927 49.1262 13.7955 48.919 13.787C48.7064 13.7809 48.5105 13.8588 48.3641 14.0093L13.4486 49.8377C13.302 49.9879 13.2233 50.1945 13.2319 50.4071C13.2402 50.6194 13.3349 50.819 13.4929 50.9567C18.1039 54.9776 23.9663 57.192 30.0003 57.192C44.0781 57.192 55.5313 45.4394 55.5313 30.9935C55.531 24.8023 53.373 18.7867 49.4545 14.0547V14.0547ZM30 55.6691C24.5865 55.6691 19.3187 53.7755 15.0767 50.3212L48.8349 15.6803C52.2012 20.0329 54.0466 25.4384 54.0466 30.9938C54.0466 44.5998 43.2593 55.6691 30 55.6691V55.6691Z" fill="black"/>
</g>
<defs>
<clipPath id="clip0">
<rect width="60" height="60" fill="white"/>
</clipPath>
</defs>
</svg>
