<svg width="57" height="55" viewBox="0 0 57 55" fill="none" xmlns="http://www.w3.org/2000/svg">
<path d="M54.684 21.3694C54.5827 20.9435 54.1558 20.6805 53.7283 20.7818C53.3025 20.8836 53.0395 21.3111 53.1413 21.7369C53.5584 23.4861 53.7702 25.3332 53.7702 27.2277C53.7702 40.7599 42.5143 51.7691 28.6783 51.7691C14.8422 51.7691 3.58629 40.7599 3.58629 27.2277C3.58629 13.6944 14.8422 2.68462 28.6783 2.68462C34.1886 2.68462 39.4523 4.42828 43.8997 7.72719C44.2503 7.98803 44.7481 7.91452 45.0089 7.56273C45.2698 7.21095 45.1962 6.71432 44.8445 6.45348C40.1221 2.94982 34.5317 1.09888 28.6783 1.09888C13.9677 1.09888 2 12.8199 2 27.2277C2 41.6344 13.9677 53.3554 28.6783 53.3554C43.3889 53.3554 55.3565 41.6344 55.3565 27.2277C55.3565 25.2101 55.13 23.2394 54.684 21.3694Z" fill="#008f97"/>
<path d="M54.684 21.3694C54.5827 20.9435 54.1558 20.6805 53.7283 20.7818C53.3025 20.8836 53.0395 21.3111 53.1413 21.7369C53.5584 23.4861 53.7702 25.3332 53.7702 27.2277C53.7702 40.7599 42.5143 51.7691 28.6783 51.7691C14.8422 51.7691 3.58629 40.7599 3.58629 27.2277C3.58629 13.6944 14.8422 2.68462 28.6783 2.68462C34.1886 2.68462 39.4523 4.42828 43.8997 7.72719C44.2503 7.98803 44.7481 7.91452 45.0089 7.56273C45.2698 7.21095 45.1962 6.71432 44.8445 6.45348C40.1221 2.94982 34.5317 1.09888 28.6783 1.09888C13.9677 1.09888 2 12.8199 2 27.2277C2 41.6344 13.9677 53.3554 28.6783 53.3554C43.3889 53.3554 55.3565 41.6344 55.3565 27.2277C55.3565 25.2101 55.13 23.2394 54.684 21.3694Z" stroke="#008f97"/>
<path d="M28.1278 39.0352C27.9176 39.0352 27.7161 38.9519 27.5669 38.8032L12.6935 23.932C12.3837 23.6221 12.3837 23.1201 12.6935 22.8102C13.0028 22.5004 13.5049 22.5004 13.8148 22.8102L28.0946 37.0879L55.0708 6.87274C55.3626 6.54601 55.8636 6.51769 56.1904 6.80957C56.517 7.10145 56.5453 7.60244 56.2541 7.92918L28.7192 38.7706C28.5738 38.9334 28.368 39.0292 28.1502 39.0352H28.1278Z" fill="#008f97"/>
<path d="M28.1278 39.0352C27.9176 39.0352 27.7161 38.9519 27.5669 38.8032L12.6935 23.932C12.3837 23.6221 12.3837 23.1201 12.6935 22.8102C13.0028 22.5004 13.5049 22.5004 13.8148 22.8102L28.0946 37.0879L55.0708 6.87274C55.3626 6.54601 55.8636 6.51769 56.1904 6.80957C56.517 7.10145 56.5453 7.60244 56.2541 7.92918L28.7192 38.7706C28.5738 38.9334 28.368 39.0292 28.1502 39.0352H28.1278Z" stroke="#008f97"/>
</svg>
