<svg width="60" height="60" viewBox="0 0 60 60" fill="none" xmlns="http://www.w3.org/2000/svg">
<g clip-path="url(#clip0)">
<rect width="60" height="60" fill="white"/>
<path d="M47.7625 8.25H49.9375V6.4375H45.4062C45.1659 6.4375 44.9354 6.53298 44.7654 6.70293C44.5954 6.87289 44.5 7.1034 44.5 7.34375V11.875H46.3125V9.41C51.4396 13.4798 54.8634 19.3166 55.9136 25.7779C56.9639 32.2391 55.5651 38.8598 51.9909 44.344C48.4168 49.8282 42.9246 53.7812 36.5894 55.4292C30.2542 57.0773 23.5319 56.3017 17.7384 53.2544L16.8865 54.8494C23.0468 58.0878 30.1899 58.9244 36.9317 57.197C43.6736 55.4696 49.5343 51.3013 53.3784 45.4997C57.2225 39.698 58.7763 32.676 57.7387 25.7941C56.7012 18.9122 53.1462 12.6604 47.7625 8.25V8.25Z" fill="black"/>
<path d="M13.6875 50.599C8.54805 46.5333 5.11296 40.6942 4.05589 34.2268C2.99882 27.7595 4.39604 21.1305 7.97354 15.64C11.551 10.1495 17.0507 6.19365 23.3939 4.5482C29.7371 2.90274 36.4662 3.68642 42.2615 6.74556L43.1134 5.15056C36.9531 1.91215 29.8101 1.07558 23.0682 2.80294C16.3264 4.5303 10.4656 8.69861 6.62154 14.5003C2.77745 20.302 1.22365 27.324 2.2612 34.2059C3.29874 41.0877 6.85376 47.3395 12.2375 51.7499H10.0625V53.5624H14.5937C14.8341 53.5624 15.0646 53.467 15.2345 53.297C15.4045 53.1271 15.5 52.8965 15.5 52.6562V48.1249H13.6875V50.599Z" fill="black"/>
<path d="M9.15625 30C9.15625 34.1225 10.3787 38.1524 12.6691 41.5802C14.9594 45.0079 18.2147 47.6795 22.0234 49.2571C25.8321 50.8347 30.0231 51.2475 34.0664 50.4432C38.1097 49.639 41.8237 47.6538 44.7388 44.7388C47.6538 41.8237 49.639 38.1097 50.4432 34.0664C51.2475 30.0231 50.8347 25.8321 49.2571 22.0234C47.6795 18.2147 45.0079 14.9594 41.5802 12.6691C38.1524 10.3787 34.1225 9.15625 30 9.15625C24.4719 9.15625 19.1702 11.3523 15.2612 15.2612C11.3523 19.1702 9.15625 24.4719 9.15625 30V30ZM49.0312 30C49.0312 33.764 47.9151 37.4435 45.8239 40.5732C43.7327 43.7029 40.7604 46.1422 37.2829 47.5826C33.8054 49.023 29.9789 49.3999 26.2872 48.6656C22.5955 47.9312 19.2044 46.1187 16.5429 43.4571C13.8813 40.7956 12.0688 37.4045 11.3344 33.7128C10.6001 30.0211 10.977 26.1946 12.4174 22.7171C13.8578 19.2395 16.2971 16.2673 19.4268 14.1761C22.5565 12.0849 26.236 10.9688 30 10.9688C35.0474 10.9688 39.8881 12.9738 43.4571 16.5429C47.0262 20.1119 49.0312 24.9526 49.0312 30Z" fill="black"/>
<path d="M12.7812 30C12.7813 33.4055 13.7911 36.7346 15.6831 39.5662C17.5752 42.3978 20.2644 44.6048 23.4107 45.908C26.557 47.2113 30.0191 47.5523 33.3592 46.8879C36.6993 46.2235 39.7674 44.5836 42.1755 42.1755C44.5836 39.7674 46.2235 36.6993 46.8879 33.3592C47.5523 30.0191 47.2113 26.557 45.908 23.4107C44.6048 20.2644 42.3978 17.5752 39.5662 15.6831C36.7346 13.7911 33.4055 12.7812 30 12.7812C25.4333 12.7813 21.0536 14.5954 17.8245 17.8245C14.5954 21.0536 12.7813 25.4333 12.7812 30V30ZM39.7059 21.5809L41.5184 19.7684C43.8306 22.3484 45.201 25.6354 45.4062 29.0937H42.6875V30.9062H45.4062C45.2045 34.355 43.8442 37.6345 41.5456 40.2134L39.7331 38.4009L38.4462 39.6878L40.2587 41.5003C37.6741 43.8247 34.3764 45.202 30.9062 45.4062V42.6875H29.0937V45.4062C25.645 45.2045 22.3655 43.8442 19.7866 41.5456L21.5991 39.7331L20.3122 38.4462L18.4997 40.2587C16.1917 37.6678 14.8307 34.3708 14.6391 30.9062H17.3125V29.0937H14.6391C14.8408 25.645 16.2011 22.3655 18.4997 19.7866L20.3122 21.5991L21.5991 20.3122L19.7866 18.4997C22.3655 16.2011 25.645 14.8408 29.0937 14.6391V17.3125H30.9062V14.6391C34.355 14.8408 37.6345 16.2011 40.2134 18.4997L38.4009 20.3122L39.7059 21.5809Z" fill="black"/>
<path d="M30.9063 19.125H29.0938V30C29.0931 30.1193 29.1159 30.2375 29.161 30.3479C29.2061 30.4583 29.2726 30.5588 29.3566 30.6434L34.7941 36.0809L36.0809 34.7941L30.9063 29.6284V19.125Z" fill="black"/>
</g>
<defs>
<clipPath id="clip0">
<rect width="60" height="60" fill="white"/>
</clipPath>
</defs>
</svg>
