<?xml version="1.0" encoding="UTF-8"?>
<!-- Generator: Adobe Illustrator 21.1.0, SVG Export Plug-In . SVG Version: 6.00 Build 0)  -->
<svg version="1.1" id="Слой_1" xmlns="http://www.w3.org/2000/svg" xmlns:xlink="http://www.w3.org/1999/xlink" x="0px" y="0px" viewBox="0 0 64 64" style="enable-background:new 0 0 64 64;" xml:space="preserve">
<style type="text/css">
	.st0{fill:#5376A4;}
	.st1{fill:#FFFFFF;}
</style>
<g>
	<circle class="st0" cx="32" cy="32" r="32"/>
</g>
<g>
	<path class="st1" d="M49.3,40.1c-1.2-1.4-2.6-2.6-3.9-3.9c-1.2-1.2-1.3-1.8-0.3-3.2c1-1.5,2.2-2.9,3.2-4.3s2-2.7,2.5-4.4   c0.3-1,0-1.5-1-1.7c-0.2,0-0.4,0-0.6,0h-6.3c-0.8,0-1.2,0.3-1.5,1c-0.4,0.9-0.8,1.9-1.2,2.8c-1,2-2.1,4-3.7,5.7   c-0.3,0.4-0.7,0.8-1.3,0.6c-0.7-0.3-0.9-1.5-0.9-1.9v-7.3c-0.1-1-0.4-1.5-1.4-1.7h-6.6c-0.9,0-1.3,0.3-1.8,0.9   c-0.3,0.3-0.4,0.5,0.2,0.6c1.1,0.2,1.7,0.9,1.9,2c0.3,1.8,0.2,3.5,0.1,5.3c0,0.5-0.1,1-0.3,1.5c-0.3,0.8-0.8,0.9-1.5,0.4   c-0.6-0.4-1-1-1.5-1.6c-1.6-2.2-2.8-4.6-3.9-7.2c-0.3-0.7-0.8-1.2-1.6-1.2c-1.9,0-3.8,0-5.7,0c-1.1,0-1.5,0.6-1,1.6   c2.1,4.6,4.4,9.1,7.4,13.2c1.5,2.1,3.3,3.9,5.6,5.3c2.6,1.5,5.4,1.9,8.3,1.8c1.4-0.1,1.8-0.4,1.9-1.8c0-0.9,0.1-1.9,0.6-2.7   s1.1-1,1.9-0.5c0.4,0.3,0.7,0.6,1,0.9c0.8,0.8,1.5,1.7,2.3,2.5c1,1,2.2,1.6,3.7,1.5h5.8c0.9-0.1,1.4-1.2,0.9-2.3   C50.4,41.4,49.9,40.7,49.3,40.1z"/>
</g>
</svg>