<?xml version="1.0" encoding="UTF-8"?>
<!-- Generator: Adobe Illustrator 21.1.0, SVG Export Plug-In . SVG Version: 6.00 Build 0)  -->
<svg version="1.1" id="Слой_1" xmlns="http://www.w3.org/2000/svg" xmlns:xlink="http://www.w3.org/1999/xlink" x="0px" y="0px" viewBox="0 0 64 64" style="enable-background:new 0 0 64 64;" xml:space="preserve">
<style type="text/css">
	.st0{fill:#EB3323;}
	.st1{fill:#FFFFFF;}
</style>
<g>
	<circle class="st0" cx="32" cy="32" r="32"/>
</g>
<g>
	<g>
		<path class="st1" d="M48.5,31.2c-0.4-1.8-1.9-3.1-3.7-3.3c-4.2-0.5-8.4-0.5-12.6-0.5s-8.5,0-12.6,0.5c-1.8,0.2-3.2,1.5-3.6,3.3    c-0.6,2.6-0.6,5.3-0.6,8s0,5.4,0.6,8c0.4,1.8,1.9,3.1,3.6,3.3C23.8,51,28,51,32.2,51s8.5,0,12.6-0.5c1.8-0.2,3.2-1.5,3.6-3.3    c0.6-2.6,0.6-5.3,0.6-8C49.1,36.6,49.1,33.8,48.5,31.2z M25,33.2h-2.4v13h-2.3v-13h-2.4v-2.1H25V33.2z M31.1,46.2h-2V45    c-0.8,0.9-1.6,1.4-2.3,1.4c-0.7,0-1.1-0.3-1.3-0.8c-0.1-0.3-0.2-0.9-0.2-1.7V35h2v8.3c0,0.5,0,0.7,0,0.8c0,0.3,0.2,0.5,0.5,0.5    c0.4,0,0.8-0.3,1.3-1V35h2V46.2L31.1,46.2z M38.9,42.8c0,1-0.1,1.8-0.2,2.3c-0.3,0.8-0.8,1.3-1.6,1.3c-0.7,0-1.4-0.4-2.1-1.2v1.1    h-2V31.1h2V36c0.7-0.8,1.4-1.2,2.1-1.2c0.8,0,1.4,0.4,1.6,1.3c0.1,0.5,0.2,1.2,0.2,2.3V42.8z M46.6,41h-4.1v2c0,1,0.3,1.6,1,1.6    c0.5,0,0.8-0.3,0.9-0.8c0-0.1,0-0.6,0-1.4h2.1v0.3c0,0.7,0,1.1,0,1.3c-0.1,0.5-0.2,0.9-0.5,1.2c-0.6,0.8-1.4,1.2-2.5,1.2    S41.6,46,41,45.2c-0.4-0.6-0.7-1.5-0.7-2.6v-3.9c0-1.2,0.2-2.1,0.6-2.7c0.6-0.8,1.4-1.2,2.4-1.2s1.8,0.4,2.4,1.2    c0.4,0.6,0.6,1.4,0.6,2.7L46.6,41L46.6,41z"/>
		<path class="st1" d="M43.5,36.7c-0.7,0-1,0.5-1,1.6v1h2v-1C44.5,37.2,44.2,36.7,43.5,36.7z"/>
		<path class="st1" d="M36,36.7c-0.3,0-0.7,0.2-1,0.5V44c0.3,0.3,0.7,0.5,1,0.5c0.6,0,0.9-0.5,0.9-1.5v-4.8    C36.8,37.2,36.5,36.7,36,36.7z"/>
		<path class="st1" d="M37.1,26.4c0.8,0,1.5-0.5,2.4-1.4v1.2h2.1V14.9h-2.1v8.7c-0.5,0.6-0.9,1-1.3,1c-0.3,0-0.4-0.2-0.5-0.5    c0-0.1,0-0.3,0-0.8v-8.4h-2.1v9c0,0.8,0.1,1.3,0.2,1.7C36,26.2,36.4,26.4,37.1,26.4z"/>
		<path class="st1" d="M22.7,20.1v6.2H25v-6.2l2.8-9.1h-2.3l-1.6,6l-1.6-6h-2.4c0.5,1.4,1,2.8,1.5,4.3C22.1,17.4,22.5,19,22.7,20.1z    "/>
		<path class="st1" d="M30.8,26.4c1,0,1.8-0.4,2.4-1.2c0.4-0.6,0.6-1.5,0.6-2.7v-4c0-1.2-0.2-2.1-0.6-2.7c-0.6-0.8-1.4-1.2-2.4-1.2    S29,15,28.4,15.8c-0.4,0.6-0.6,1.5-0.6,2.7v4c0,1.2,0.2,2.1,0.6,2.7C29,26,29.8,26.4,30.8,26.4z M29.9,18.2c0-1.1,0.3-1.6,1-1.6    s1,0.5,1,1.6V23c0,1.1-0.3,1.6-1,1.6s-1-0.5-1-1.6V18.2z"/>
	</g>
</g>
</svg>